<?xml version="1.0" encoding="iso-8859-1"?>
<!-- Generator: Adobe Illustrator 18.1.1, SVG Export Plug-In . SVG Version: 6.00 Build 0)  -->
<svg version="1.1" id="Layer_1" xmlns="http://www.w3.org/2000/svg" xmlns:xlink="http://www.w3.org/1999/xlink" x="0px" y="0px"
	 width="288px" height="144px" viewBox="-161 325 288 144" style="enable-background:new -161 325 288 144;" xml:space="preserve">
<path style="fill:#62269E;" d="M-156.4,382.5h4.9l15.3,22.8h0.1v-22.8h3.8v27.7h-4.8l-15.5-22.7h-0.1v22.8h-3.7V382.5z"/>
<path style="fill:#62269E;" d="M-125.3,382.5h3.8v27.7h-3.8V382.5z"/>
<path style="fill:#62269E;" d="M-95.1,388.5c-0.8-1-1.8-1.8-3-2.3c-1.2-0.5-2.4-0.8-3.7-0.8c-1.6,0-3,0.3-4.2,0.9
	c-1.3,0.6-2.3,1.4-3.2,2.4c-0.9,1-1.6,2.2-2.1,3.6c-0.5,1.4-0.7,2.8-0.7,4.4c0,1.5,0.2,2.8,0.7,4.2c0.5,1.3,1.1,2.5,2,3.4
	c0.9,1,2,1.8,3.2,2.3c1.3,0.6,2.7,0.9,4.3,0.9c1.6,0,3-0.3,4.2-1c1.2-0.7,2.2-1.6,3.1-2.7l3.2,2.4c-0.2,0.3-0.6,0.7-1.1,1.2
	s-1.2,1.1-2.1,1.6s-1.9,1-3.1,1.4c-1.2,0.4-2.6,0.6-4.2,0.6c-2.2,0-4.2-0.4-5.9-1.3c-1.8-0.8-3.3-1.9-4.5-3.3
	c-1.2-1.4-2.2-2.9-2.8-4.6c-0.6-1.7-1-3.4-1-5.2c0-2.1,0.4-4.1,1.1-5.9c0.7-1.8,1.7-3.4,3-4.7s2.8-2.3,4.6-3.1
	c1.8-0.7,3.7-1.1,5.9-1.1c1.8,0,3.6,0.4,5.4,1.1c1.8,0.7,3.2,1.8,4.3,3.2L-95.1,388.5z"/>
<path style="fill:#62269E;" d="M-86.8,382.5h3.8V394h14.4v-11.5h3.8v27.7h-3.8v-12.6h-14.5v12.7h-3.8v-27.8H-86.8z"/>
<path style="fill:#62269E;" d="M-45.1,411c-2.1,0-4.1-0.4-5.8-1.1c-1.8-0.7-3.3-1.8-4.6-3.1c-1.3-1.3-2.3-2.8-3-4.6
	c-0.7-1.8-1.1-3.7-1.1-5.8s0.4-4,1.1-5.8c0.7-1.8,1.7-3.3,3-4.6s2.8-2.3,4.6-3.1c1.8-0.7,3.7-1.1,5.8-1.1c2.1,0,4.1,0.4,5.8,1.1
	c1.8,0.7,3.3,1.8,4.6,3.1c1.3,1.3,2.3,2.8,3,4.6c0.7,1.8,1.1,3.7,1.1,5.8s-0.4,4-1.1,5.8c-0.7,1.8-1.7,3.3-3,4.6
	c-1.3,1.3-2.8,2.3-4.6,3.1C-41,410.6-43,411-45.1,411z M-45.1,407.4c1.6,0,3-0.3,4.3-0.9s2.4-1.4,3.3-2.4s1.6-2.2,2.1-3.5
	c0.5-1.3,0.7-2.8,0.7-4.3s-0.2-2.9-0.7-4.3c-0.5-1.3-1.2-2.5-2.1-3.5s-2-1.8-3.3-2.4c-1.3-0.6-2.7-0.9-4.3-0.9c-1.6,0-3,0.3-4.3,0.9
	c-1.3,0.6-2.4,1.4-3.3,2.4s-1.6,2.2-2.1,3.5c-0.5,1.3-0.7,2.8-0.7,4.3s0.2,2.9,0.7,4.3c0.5,1.3,1.2,2.5,2.1,3.5s2,1.8,3.3,2.4
	S-46.7,407.4-45.1,407.4z"/>
<path style="fill:#62269E;" d="M-25.2,382.5h3.8v24.2h12.7v3.5h-16.5V382.5z"/>
<path style="fill:#62269E;" d="M-4.9,382.5H5.2l1.3,3.5h-7.6v8.3H9.4l1.3,3.5H-1.1v8.9h14.8l1.3,3.5H-4.9L-4.9,382.5L-4.9,382.5z"/>
<polygon style="fill:#62269E;" points="75.5,398.1 75.5,410.4 87,410.4 80,398.1 "/>
<path style="fill:#62269E;" d="M96.3,402.5c-0.8-1.9-1.2-3.9-1.2-6.1c0-2.2,0.4-4.3,1.2-6.1c0.8-1.9,1.8-3.5,3.2-4.9
	c1.2-1.2,2.6-2.2,4.2-3H86.6l0,0c1.2,0.5,2.2,1.2,2.9,2c0.7,0.8,1.2,1.7,1.5,2.7s0.4,1.9,0.4,2.9c0,0.9-0.2,1.9-0.5,2.7
	c-0.3,0.9-0.8,1.7-1.4,2.4c-0.6,0.7-1.4,1.3-2.3,1.8c-0.9,0.5-1.9,0.8-3,0.9l7.9,12.7h11.6c-1.6-0.8-3-1.7-4.1-2.9
	C98.2,406.1,97.1,404.4,96.3,402.5z"/>
<polygon style="fill:#62269E;" points="17.3,405.7 26.1,382.4 8.8,382.4 17.2,405.7 "/>
<rect x="63.9" y="382.4" style="fill:#62269E;" width="7.6" height="28.1"/>
<polygon style="fill:#62269E;" points="53.4,382.4 53.4,385.4 38.3,385.4 38.3,394.2 52.4,394.2 52.4,397.9 38.3,397.9 38.3,407.4 
	54.2,407.4 54.2,410.4 59.8,410.4 59.8,382.4 "/>
<path style="fill:#62269E;" d="M118.7,388.1c-1-1.1-2.1-1.9-3.5-2.5s-2.9-0.9-4.6-0.9s-3.2,0.3-4.6,0.9s-2.5,1.5-3.5,2.5
	c-1,1.1-1.7,2.3-2.3,3.7c-0.5,1.4-0.8,3-0.8,4.6s0.3,3.1,0.8,4.6s1.3,2.7,2.3,3.7c1,1.1,2.1,1.9,3.5,2.5s2.9,0.9,4.6,0.9
	s3.2-0.3,4.6-0.9s2.5-1.5,3.5-2.5c1-1.1,1.7-2.3,2.3-3.7s0.8-3,0.8-4.6s-0.3-3.1-0.8-4.6C120.4,390.4,119.7,389.1,118.7,388.1z"/>
<path style="fill:#62269E;" d="M86.6,392.3c0.4-0.6,0.5-1.4,0.5-2.4s-0.2-1.8-0.5-2.4c-0.4-0.6-0.8-1.1-1.4-1.4
	c-0.6-0.3-1.3-0.6-2-0.7c-0.8-0.1-1.5-0.2-2.3-0.2h-5.3v9.5h5.3c0.8,0,1.6-0.1,2.3-0.2c0.8-0.1,1.4-0.4,2-0.7
	C85.7,393.4,86.2,392.9,86.6,392.3z"/>
<polygon style="fill:#62269E;" points="30.4,382.4 19.4,410.4 34.3,410.4 34.3,382.4 "/>
</svg>
